<svg width="30" height="30" viewBox="0 0 30 30" fill="none" xmlns="http://www.w3.org/2000/svg">
<path d="M22.9219 25.8926C17.625 25.8926 12.3223 25.8926 7.02539 25.8926C6.94336 25.875 6.86133 25.8457 6.7793 25.8398C4.49414 25.6113 2.5957 23.9707 2.05664 21.7383C1.97461 21.3926 1.93359 21.0352 1.86914 20.6836C1.86914 20.5137 1.86914 20.3438 1.86914 20.1738C1.88672 20.0625 1.91602 19.9453 1.92773 19.834C2.04492 18.498 2.15625 17.1562 2.27344 15.8203C2.49609 13.2598 2.74219 10.6992 2.94141 8.13867C3.11719 5.84766 4.77539 4.20117 7.06641 4.18945C12.334 4.17188 17.5957 4.17188 22.8633 4.18945C24.8789 4.19531 26.4844 5.47266 26.8828 7.40625C27.041 8.16797 27.0586 8.95898 27.1289 9.73828C27.4277 13.1719 27.7383 16.6113 28.0195 20.0508C28.2363 22.6992 26.4961 25.084 23.9121 25.7168C23.5898 25.793 23.25 25.834 22.9219 25.8926ZM15.7266 14.6602C17.666 14.4902 19.4941 13.3066 20.5195 11.0039C20.8594 10.2422 21.0762 9.43359 21.3398 8.63672C21.5391 8.03906 21.2695 7.4707 20.7305 7.28906C20.168 7.10156 19.623 7.38867 19.4121 8.00391C19.2012 8.61328 19.002 9.22852 18.7969 9.83789C18.2109 11.5605 16.7227 12.6562 14.9766 12.6562C13.2363 12.6562 11.7363 11.5547 11.1562 9.83789C10.9453 9.2168 10.7461 8.5957 10.5293 7.97461C10.3242 7.38281 9.7793 7.10156 9.22266 7.2832C8.68359 7.46484 8.41406 8.0332 8.60742 8.625C8.83594 9.32812 9.05859 10.0313 9.31055 10.7285C10.1953 13.1719 12.6562 14.8242 15.7266 14.6602Z" fill="black"/>
</svg>
