<?xml version="1.0" encoding="utf-8"?>
<!-- Generator: Adobe Illustrator 28.1.0, SVG Export Plug-In . SVG Version: 6.00 Build 0)  -->
<svg version="1.1" id="Слой_1" xmlns="http://www.w3.org/2000/svg" xmlns:xlink="http://www.w3.org/1999/xlink" x="0px" y="0px"
	 viewBox="0 0 2000 2000" style="enable-background:new 0 0 2000 2000;" xml:space="preserve">
<g>
	<path d="M1002.31,559.52c16.67-16.72,33.48-33.34,50.04-50.21c82.01-83.55,181.45-122.65,298.44-118.33
		c175.64,6.48,332.56,149.96,354.17,324.19c15.96,128.64-21.6,238.79-113.24,330.46c-177.41,177.45-354.81,354.92-532.27,532.33
		c-37.93,37.92-77.87,37.89-115.76,0.01c-178.22-178.19-356.72-356.12-534.5-534.74c-172.18-172.99-147.68-451.08,51.04-587.33
		c149.55-102.54,351.68-83.12,483.56,46.42C963.02,521.2,982.34,540,1002.31,559.52z"/>
</g>
</svg>
