<?xml version="1.0" encoding="utf-8"?>
<!-- Generator: Adobe Illustrator 28.1.0, SVG Export Plug-In . SVG Version: 6.00 Build 0)  -->
<svg version="1.1" id="Слой_1" xmlns="http://www.w3.org/2000/svg" xmlns:xlink="http://www.w3.org/1999/xlink" x="0px" y="0px"
	 viewBox="0 0 2000 2000" style="enable-background:new 0 0 2000 2000;" xml:space="preserve">
<g>
	<path d="M150,1147.21c0-25.84,16.01-49.2,40.35-57.89c10.96-3.91,23.57-5.49,37.73-5.41c202.63,1.08,405.26,0.5,607.89,0.52
		c48.79,0,71.84,23.06,71.85,72.07c0.04,204.28,0.04,408.56,0,612.84c-0.01,49.89-22.9,72.58-73.1,72.59
		c-203.18,0.02-406.37-0.41-609.55,0.39c-24.81,0.1-44.44-5.65-58.44-20.09c-10.93-11.27-16.73-26.55-16.73-42.25V1147.21z"/>
	<path d="M150,216.83c0-15.71,5.81-31,16.75-42.29c14.01-14.45,33.63-20.21,58.45-20.11c202.63,0.82,405.26,0.38,607.89,0.39
		c52.45,0,74.73,22.14,74.74,74.29c0.02,203.17,0.02,406.35,0,609.52c-0.01,51.25-22.44,73.69-73.53,73.69
		c-202.08,0.01-404.16-0.57-606.23,0.51c-14.14,0.08-26.73-1.49-37.68-5.4c-24.36-8.68-40.39-32.07-40.39-57.94V216.83z"/>
	<path d="M1836.95,1462.29c0,103.26,0.03,206.52-0.01,309.78c-0.02,46.71-23.3,69.82-70.51,69.83c-205.43,0.05-410.85,0.05-616.28,0
		c-47.09-0.01-70.57-23.15-70.59-69.87c-0.09-205.97-0.1-411.94,0-617.91c0.02-46.7,23.52-69.69,70.66-69.7
		c205.42-0.02,410.85-0.03,616.28,0c47.24,0.01,70.42,22.95,70.44,69.74C1836.98,1256.88,1836.95,1359.59,1836.95,1462.29z"/>
	<path d="M1427.04,168.02c17.14-13.5,41.14-13.72,59.25-1.56c4.31,2.89,8.32,5.97,11.89,9.5
		c98.48,97.53,196.31,195.72,294.32,293.71c12.11,12.1,24.37,24.06,36.27,36.36c23.96,24.75,24.3,49.86,0.26,73.95
		c-111.56,111.79-223.24,223.45-335.07,334.96c-22.69,22.63-48.54,22.55-71.4-0.25c-112.21-111.92-224.28-223.98-336.18-336.21
		c-22.2-22.27-22.41-48.23-0.42-70.28c112.28-112.63,224.68-225.14,337.6-337.12C1424.64,170.01,1425.81,168.99,1427.04,168.02z"/>
</g>
</svg>
