<?xml version="1.0" encoding="utf-8"?>
<!-- Generator: Adobe Illustrator 28.1.0, SVG Export Plug-In . SVG Version: 6.00 Build 0)  -->
<svg version="1.1" id="Слой_1" xmlns="http://www.w3.org/2000/svg" xmlns:xlink="http://www.w3.org/1999/xlink" x="0px" y="0px"
	 viewBox="0 0 2000 2000" style="enable-background:new 0 0 2000 2000;" xml:space="preserve">
<g>
	<path d="M998.5,435.46c135.91,0,271.82-0.23,407.73,0.08c93.59,0.21,171.26,49.5,202.42,133.07
		c11.71,31.41,15.87,66.37,19.01,100.12c13.59,146.22,25.53,292.6,38.08,438.92c4.39,51.16,9.39,102.27,13.15,153.47
		c12.18,166.1-111.96,304.47-279.18,305.74c-267.38,2.03-534.8,1.87-802.18,0.04c-155.25-1.06-276.22-121.34-280.07-275.92
		c-1.12-45.03,5.64-90.29,9.47-135.39c9.25-108.92,18.94-217.81,28.4-326.71c5.78-66.55,10.31-133.24,17.43-199.64
		c12.34-114.94,100.99-193.33,218.03-193.68C726.68,435.15,862.59,435.46,998.5,435.46z M1016.53,983.85
		c112.87-6.7,209.89-64.47,266.16-181.8c20.37-42.48,32.54-88.94,47.68-133.85c10.5-31.13-3.27-60.75-31.4-70.38
		c-29.33-10.04-57.85,5.14-68.82,37.04c-10.94,31.81-21.39,63.79-32.22,95.63c-30.58,89.91-107.88,147.12-199.02,147.41
		c-90.56,0.29-169.05-57.4-199.49-146.76c-10.85-31.84-21.26-63.82-32.19-95.63c-11.08-32.26-38.92-47.52-68.42-37.89
		c-28.77,9.39-42.34,39.42-31.91,71.5c11.08,34.07,22.17,68.15,33.91,102C745.2,899.06,867.19,985.55,1016.53,983.85z"/>
</g>
</svg>
