<?xml version="1.0" encoding="utf-8"?>
<!-- Generator: Adobe Illustrator 28.1.0, SVG Export Plug-In . SVG Version: 6.00 Build 0)  -->
<svg version="1.1" id="Слой_1" xmlns="http://www.w3.org/2000/svg" xmlns:xlink="http://www.w3.org/1999/xlink" x="0px" y="0px"
	 viewBox="0 0 2000 2000" style="enable-background:new 0 0 2000 2000;" xml:space="preserve">
<g>
	<path d="M550.8,1850.33c-19.27-4.03-38.85-6.93-57.76-12.26c-120.98-34.07-197.44-127.33-202.77-254.31
		c-5.51-131.18,8.89-260.46,58.74-383.29c32.18-79.3,78.92-147.9,157.26-189.78c48.31-25.83,100.16-38.18,154.37-37.05
		c17.1,0.35,35.1,8.99,50.71,17.48c25.15,13.68,48.47,30.67,72.88,45.75c141.97,87.66,283.99,87.58,425.84-0.32
		c19.7-12.21,39.81-23.99,58.31-37.85c33.95-25.43,71.3-28.63,111.64-22.7c110.09,16.18,187.85,76.49,240.27,172.68
		c46.8,85.88,67.87,179.15,77.24,275.26c4.81,49.35,7.08,99.21,6.49,148.79c-1.78,148.07-103.41,258.26-250.68,274.5
		c-3.66,0.4-7.19,2.04-10.77,3.1C1145.31,1850.33,848.06,1850.33,550.8,1850.33z"/>
	<path d="M985.61,970.67c-227.72-1.35-409.86-184.66-408.16-410.76c1.71-226.9,184.56-407.15,410.28-407.19
		c221.79-0.03,409.46,184,407.48,410.12C1393.2,790.26,1210.38,972,985.61,970.67z"/>
</g>
</svg>
