<?xml version="1.0" encoding="utf-8"?>
<!-- Generator: Adobe Illustrator 28.1.0, SVG Export Plug-In . SVG Version: 6.00 Build 0)  -->
<svg version="1.1" id="Слой_1" xmlns="http://www.w3.org/2000/svg" xmlns:xlink="http://www.w3.org/1999/xlink" x="0px" y="0px"
	 viewBox="0 0 2000 2000" style="enable-background:new 0 0 2000 2000;" xml:space="preserve">
<g>
	<path d="M326.16,701.15c2.97-141.24,56.9-272.5,166.38-380.17c12.61-12.4,25.28-24.74,38.24-36.78
		c88.79-82.47,226.15-63.96,288.63,39.71c34.47,57.2,67.8,115.14,100.2,173.54c63.06,113.66-1.97,251-129.57,275.24
		c-55.87,10.61-83.24,58.01-64.35,111.74c45.95,130.65,114.27,248.43,204.19,353.7c34.86,40.81,89.91,41.11,125.8,1.06
		c93.22-104.02,240.75-89.2,310.68,31.29c31.32,53.96,62.69,107.88,93.61,162.06c63.62,111.5,13.01,239.76-109.08,278.3
		c-59.77,18.87-120.14,33.74-183.28,33.79c-181.67,0.15-331.02-69.53-444.42-211.22c-151.47-189.26-270.38-397.76-359.42-623.25
		C338.72,846.77,326.9,780.85,326.16,701.15z"/>
	<path d="M1701.01,975.96c-4.2,45.04-7.75,90.15-12.8,135.1c-3.85,34.25-29.78,54.21-61.9,49.71
		c-29.65-4.16-47.65-32.28-43.06-65.59c33.17-240.92-42.02-441.92-223.93-602.77c-50.02-44.22-107.5-77.18-168.97-103.25
		c-28.25-11.98-41.62-37.42-34.51-63.62c8.69-32.04,41.43-47.72,73.55-34.67c54.48,22.13,105.84,50.15,153.1,85.1
		c181.72,134.37,285.19,314.29,311.71,538.53c2.4,20.28,2.9,40.78,4.28,61.18C1699.32,975.76,1700.17,975.86,1701.01,975.96z"/>
	<path d="M1416.06,993.21c-2.06,23.09-3.69,46.23-6.27,69.26c-4.01,35.84-28.35,56.3-61.29,52.29
		c-30.31-3.69-48.97-31.6-43.98-66.26c11.36-78.88-0.22-153.99-36.75-224.99c-40.71-79.12-102.14-136.39-183.42-172.25
		c-19.68-8.68-33.4-21.71-36.11-43.55c-5.31-42.71,34.61-72.2,75.09-54.94c106.77,45.51,186.6,120.44,239.75,223.44
		C1398.13,844.13,1414.78,916.74,1416.06,993.21z"/>
</g>
</svg>
