<svg width="44" height="44" viewBox="0 0 44 44" fill="none" xmlns="http://www.w3.org/2000/svg">
<rect width="44" height="44" fill="#1E1E1E"/>
<g clip-path="url(#clip0_0_1)">
<rect width="360" height="783" transform="translate(-8 -18)" fill="white"/>
<path d="M-8 -25H352V194C352 210.569 338.569 224 322 224H22C5.43145 224 -8 210.569 -8 194V-25Z" fill="#FB7396"/>
<rect width="44" height="44" rx="12" fill="#1A1A1A"/>
<path d="M13 23.7546C13.1559 23.3606 13.4527 23.2329 13.8758 23.2366C16.1432 23.2475 18.4143 23.2439 20.6816 23.2439C21.2271 23.2439 21.4869 23.4993 21.4869 24.0392C21.4869 26.2901 21.4869 28.5373 21.4869 30.7882C21.4869 31.339 21.2309 31.5871 20.6668 31.5871C18.392 31.5871 16.1172 31.5835 13.8424 31.5908C13.4268 31.5908 13.141 31.4485 13 31.0545C13 28.6175 13 26.1843 13 23.7546Z" fill="white"/>
<path d="M13 13.5363C13.1373 13.1423 13.423 13 13.8424 13C16.1098 13.0073 18.3809 13.0037 20.6482 13.0037C21.2346 13.0037 21.4869 13.2481 21.4869 13.8208C21.4869 16.0571 21.4869 18.2934 21.4869 20.5333C21.4869 21.0988 21.2346 21.3432 20.6631 21.3432C18.3994 21.3432 16.1357 21.3359 13.8758 21.3505C13.4564 21.3542 13.1559 21.2265 13 20.8325C13 18.4029 13 15.9696 13 13.5363Z" fill="white"/>
<path d="M32 17.4033C31.9035 17.5273 31.8219 17.6623 31.7105 17.7754C30.5156 18.9574 29.317 20.132 28.1183 21.3104C27.7806 21.6424 27.5246 21.6424 27.1869 21.3104C25.9771 20.1211 24.7637 18.9282 23.5539 17.7389C23.2162 17.4069 23.2162 17.1625 23.5465 16.8342C24.7637 15.6376 25.9771 14.4446 27.1943 13.2481C27.5246 12.9234 27.7844 12.9234 28.1146 13.2481C29.3058 14.4155 30.4933 15.5865 31.6808 16.7575C31.7996 16.8743 31.8961 17.0202 32 17.1515C32 17.2354 32 17.3194 32 17.4033Z" fill="white"/>
<path d="M31.8887 27.41C31.8887 28.5482 31.8887 29.6828 31.8887 30.821C31.8887 31.3245 31.6252 31.5835 31.1094 31.5835C28.8012 31.5835 26.4967 31.5835 24.1885 31.5835C23.6652 31.5835 23.4055 31.3245 23.4055 30.8064C23.4055 28.5446 23.4055 26.2828 23.4055 24.0209C23.4055 23.492 23.6652 23.2439 24.2033 23.2439C26.4967 23.2439 28.79 23.2439 31.0871 23.2439C31.6363 23.2439 31.8887 23.492 31.8887 24.0392C31.8887 25.1591 31.8887 26.2828 31.8887 27.41Z" fill="white"/>
</g>
<defs>
<clipPath id="clip0_0_1">
<rect width="360" height="783" fill="white" transform="translate(-8 -18)"/>
</clipPath>
</defs>
</svg>
